<?xml version="1.0" encoding="utf-8"?>
<svg xmlns="http://www.w3.org/2000/svg" width="1024" height="1024" viewBox="0 0 1024 1024" xmlns:bx="https://boxy-svg.com"><defs><linearGradient id="gradient_0" gradientUnits="userSpaceOnUse" x1="358.06418" y1="432.62802" x2="154.02487" y2="73.855682" gradientTransform="matrix(2, 0, 0, 2, 0, 0)"><stop offset="0" stop-color="#BDD3F2"/><stop offset="1" stop-color="#FFFFFC"/></linearGradient></defs><g transform="matrix(1.45602, 0, 0, 1.45602, -234.0336, -225.770905)"><path fill="url(#gradient_0)" d="M 625 163.745 C 636.998 161.908 646.212 163.663 658.146 163.809 C 715.916 161.68 764.134 160.345 808.976 204.896 C 837.75 233.484 855.316 271.05 855.58 312.746 L 855.6 664.898 C 855.606 686.468 856.932 710.994 852.308 731.87 C 839.202 791.05 793.74 835.986 734.124 847.706 C 716.098 851.252 697.716 850.412 679.372 850.4 L 395.874 850.372 L 342.938 850.404 C 293.38 850.552 265.906 847.62 224.084 815.292 C 165.72 770.178 169.015 712.058 169.009 647.672 L 169.378 369.502 C 169.71 340.628 168.096 312.746 173.098 283.818 C 183.883 221.448 241.76 169.653 304.746 164.627 C 319.076 163.484 334.9 163.727 349.366 163.745 L 541.23 163.513 C 564.446 163.376 587.93 164.159 611.146 163.261 C 615.39 163.097 621.124 164.332 625 163.745 Z"/><g transform="matrix(1.839332, 0, 0, 1.817575, -601.381409, -420.450043)" style=""><path fill="url(#gradient_1)" d="M 475.53 446.408 C 478.318 417.334 498.862 392.132 526.196 382.406 C 541.228 377.058 556.178 377.89 571.876 377.908 L 645.336 377.89 C 683.498 377.884 716.546 384.732 731.208 427.028 C 736.946 439.03 736.184 456.956 736.176 470.08 L 736.168 545.618 C 736.18 561.628 736.568 575.624 731.142 591.016 C 715.902 634.248 682.754 642.394 643.054 642.28 L 566.682 642.238 C 553.052 642.246 536.018 643.35 523.218 638.722 C 476.696 621.902 475.476 585.714 475.512 544.154 L 475.55 488.708 C 475.554 477.776 473.952 456.212 475.53 446.408 Z" id="object-0"/><path fill="#FEFEFE" d="M 593.262 437.69 C 650.358 428.79 689.578 498.24 647.58 551.914 C 650.772 555.118 663.742 565.07 664.208 570.172 C 664.838 577.084 657.434 584.63 650.102 580.654 C 644.19 577.45 638.176 571.958 632.74 567.24 C 632.28 567.154 630.102 566.222 629.532 565.99 C 530.056 603.73 493.89 449.182 593.262 437.69 Z" style="visibility: hidden;"/><path fill="url(#gradient_2)" d="M 594.998 458.694 C 638.784 454.266 659.418 503.732 632.74 536.462 C 627.43 533.252 620.588 525.872 615.386 523.998 C 606.044 520.63 599.284 531.886 604.028 540.706 C 606.038 543.254 609.436 546.438 611.838 548.81 C 552.664 565.914 529.124 465.374 594.998 458.694 Z" style="visibility: hidden;"/></g><g transform="matrix(1.238771, 0, 0, 1.224118, 173.842972, 239.678818)"><path d="M 153.181 223.973 C 153.181 225.186 152.869 226.275 152.244 227.241 C 151.62 228.207 150.706 228.963 149.503 229.51 C 148.3 230.057 146.874 230.331 145.224 230.331 C 143.246 230.331 141.614 229.957 140.329 229.21 C 139.418 228.672 138.677 227.954 138.108 227.056 C 137.538 226.159 137.253 225.286 137.253 224.438 C 137.253 223.946 137.424 223.525 137.766 223.174 C 138.108 222.823 138.543 222.647 139.072 222.647 C 139.5 222.647 139.862 222.784 140.159 223.057 C 140.455 223.331 140.708 223.737 140.917 224.274 C 141.172 224.912 141.448 225.445 141.744 225.874 C 142.041 226.302 142.458 226.655 142.995 226.933 C 143.533 227.211 144.24 227.35 145.115 227.35 C 146.318 227.35 147.295 227.07 148.047 226.51 C 148.799 225.949 149.175 225.25 149.175 224.411 C 149.175 223.746 148.972 223.206 148.567 222.791 C 148.161 222.376 147.637 222.06 146.994 221.841 C 146.352 221.622 145.493 221.389 144.417 221.143 C 142.977 220.806 141.772 220.412 140.801 219.961 C 139.83 219.51 139.06 218.894 138.491 218.115 C 137.921 217.336 137.636 216.367 137.636 215.21 C 137.636 214.107 137.937 213.127 138.538 212.27 C 139.14 211.413 140.011 210.755 141.15 210.295 C 142.289 209.834 143.629 209.604 145.169 209.604 C 146.4 209.604 147.464 209.757 148.362 210.062 C 149.259 210.367 150.004 210.773 150.597 211.279 C 151.19 211.785 151.623 212.316 151.896 212.872 C 152.169 213.428 152.306 213.97 152.306 214.499 C 152.306 214.982 152.135 215.417 151.793 215.804 C 151.452 216.191 151.026 216.385 150.515 216.385 C 150.05 216.385 149.697 216.269 149.455 216.037 C 149.214 215.804 148.952 215.424 148.669 214.895 C 148.304 214.138 147.867 213.548 147.357 213.125 C 146.846 212.701 146.026 212.489 144.896 212.489 C 143.848 212.489 143.003 212.719 142.36 213.179 C 141.717 213.64 141.396 214.194 141.396 214.841 C 141.396 215.242 141.505 215.588 141.724 215.88 C 141.943 216.171 142.243 216.422 142.626 216.632 C 143.009 216.841 143.397 217.005 143.788 217.124 C 144.18 217.243 144.827 217.416 145.73 217.643 C 146.86 217.908 147.883 218.199 148.799 218.518 C 149.715 218.837 150.494 219.225 151.137 219.68 C 151.78 220.136 152.281 220.713 152.641 221.41 C 153.001 222.107 153.181 222.962 153.181 223.973 Z M 163.393 226.968 L 160.18 214.198 L 160.18 228.034 C 160.18 228.799 160.009 229.374 159.668 229.757 C 159.326 230.14 158.872 230.331 158.307 230.331 C 157.76 230.331 157.314 230.142 156.967 229.763 C 156.621 229.385 156.448 228.809 156.448 228.034 L 156.448 212.175 C 156.448 211.3 156.676 210.709 157.132 210.404 C 157.587 210.099 158.202 209.946 158.977 209.946 L 160.235 209.946 C 160.992 209.946 161.541 210.014 161.882 210.151 C 162.224 210.288 162.477 210.534 162.641 210.889 C 162.805 211.245 162.992 211.824 163.202 212.626 L 166.114 223.604 L 169.026 212.626 C 169.235 211.824 169.422 211.245 169.587 210.889 C 169.751 210.534 170.004 210.288 170.345 210.151 C 170.687 210.014 171.236 209.946 171.993 209.946 L 173.251 209.946 C 174.026 209.946 174.641 210.099 175.096 210.404 C 175.552 210.709 175.78 211.3 175.78 212.175 L 175.78 228.034 C 175.78 228.799 175.609 229.374 175.267 229.757 C 174.926 230.14 174.468 230.331 173.893 230.331 C 173.356 230.331 172.914 230.14 172.567 229.757 C 172.221 229.374 172.048 228.799 172.048 228.034 L 172.048 214.198 L 168.835 226.968 C 168.625 227.797 168.454 228.406 168.322 228.793 C 168.19 229.18 167.946 229.533 167.59 229.852 C 167.235 230.171 166.743 230.331 166.114 230.331 C 165.64 230.331 165.239 230.228 164.911 230.023 C 164.583 229.818 164.328 229.556 164.145 229.237 C 163.963 228.918 163.82 228.565 163.715 228.177 C 163.61 227.79 163.502 227.387 163.393 226.968 Z M 192.773 227.719 L 191.816 225.204 L 183.668 225.204 L 182.711 227.774 C 182.337 228.777 182.018 229.453 181.754 229.804 C 181.489 230.155 181.056 230.331 180.455 230.331 C 179.944 230.331 179.493 230.144 179.102 229.77 C 178.71 229.397 178.514 228.973 178.514 228.499 C 178.514 228.226 178.559 227.943 178.65 227.651 C 178.741 227.36 178.892 226.954 179.102 226.434 L 184.229 213.419 C 184.374 213.045 184.55 212.596 184.755 212.072 C 184.96 211.548 185.179 211.113 185.411 210.766 C 185.644 210.42 185.949 210.14 186.327 209.926 C 186.706 209.711 187.173 209.604 187.729 209.604 C 188.294 209.604 188.765 209.711 189.144 209.926 C 189.522 210.14 189.827 210.416 190.06 210.753 C 190.292 211.09 190.488 211.453 190.647 211.84 C 190.807 212.227 191.01 212.744 191.256 213.391 L 196.492 226.325 C 196.902 227.31 197.107 228.025 197.107 228.471 C 197.107 228.936 196.913 229.363 196.526 229.75 C 196.139 230.137 195.672 230.331 195.125 230.331 C 194.806 230.331 194.532 230.274 194.305 230.16 C 194.077 230.046 193.885 229.891 193.73 229.695 C 193.575 229.499 193.409 229.198 193.231 228.793 C 193.054 228.387 192.901 228.029 192.773 227.719 Z M 184.734 222.155 L 190.723 222.155 L 187.701 213.884 L 184.734 222.155 Z M 205.542 221.417 L 204.12 221.417 L 204.12 227.856 C 204.12 228.704 203.933 229.328 203.56 229.729 C 203.186 230.13 202.698 230.331 202.097 230.331 C 201.45 230.331 200.948 230.121 200.593 229.702 C 200.238 229.283 200.06 228.667 200.06 227.856 L 200.06 212.434 C 200.06 211.559 200.256 210.926 200.647 210.534 C 201.039 210.142 201.673 209.946 202.548 209.946 L 209.151 209.946 C 210.063 209.946 210.842 209.985 211.489 210.062 C 212.136 210.139 212.72 210.297 213.239 210.534 C 213.868 210.798 214.424 211.176 214.907 211.669 C 215.39 212.161 215.757 212.733 216.008 213.385 C 216.259 214.036 216.384 214.727 216.384 215.456 C 216.384 216.951 215.962 218.145 215.119 219.038 C 214.276 219.931 212.997 220.565 211.284 220.938 C 212.004 221.321 212.692 221.886 213.349 222.634 C 214.005 223.381 214.59 224.176 215.105 225.019 C 215.62 225.862 216.022 226.623 216.309 227.302 C 216.596 227.981 216.739 228.449 216.739 228.704 C 216.739 228.968 216.655 229.23 216.486 229.49 C 216.317 229.75 216.087 229.955 215.796 230.105 C 215.504 230.256 215.167 230.331 214.784 230.331 C 214.329 230.331 213.946 230.224 213.636 230.01 C 213.326 229.795 213.059 229.524 212.836 229.196 C 212.613 228.868 212.31 228.385 211.927 227.747 L 210.3 225.04 C 209.717 224.047 209.195 223.29 208.734 222.77 C 208.274 222.251 207.807 221.895 207.333 221.704 C 206.859 221.513 206.262 221.417 205.542 221.417 Z M 207.866 212.995 L 204.12 212.995 L 204.12 218.505 L 207.757 218.505 C 208.732 218.505 209.553 218.421 210.218 218.252 C 210.883 218.083 211.391 217.796 211.742 217.39 C 212.093 216.985 212.269 216.427 212.269 215.716 C 212.269 215.16 212.128 214.67 211.845 214.246 C 211.562 213.822 211.17 213.505 210.669 213.296 C 210.195 213.095 209.261 212.995 207.866 212.995 Z M 232.544 213.296 L 228.114 213.296 L 227.987 239.576 C 227.987 240.415 227.927 249.317 227.553 249.722 C 227.18 250.128 226.697 250.331 226.104 250.331 C 225.503 250.331 225.013 250.126 224.634 249.716 C 224.256 249.305 224.297 240.52 224.297 239.691 L 224.067 213.296 L 219.637 213.296 C 218.944 213.296 218.429 213.143 218.092 212.838 C 217.755 212.533 217.587 212.129 217.587 211.628 C 217.587 211.108 217.762 210.698 218.113 210.397 C 218.464 210.096 218.972 209.946 219.637 209.946 L 232.544 209.946 C 233.245 209.946 233.767 210.101 234.109 210.411 C 234.451 210.721 234.622 211.127 234.622 211.628 C 234.622 212.129 234.449 212.533 234.102 212.838 C 233.756 213.143 233.237 213.296 232.544 213.296 Z" transform="matrix(2.831047, 0, 0, 2.831047, -253.114273, -440.850494)" style="fill: rgb(254, 254, 254); text-wrap-mode: nowrap;"/><path d="M 294.153 271.455 C 295.829 272.589 297.66 273.692 299.648 274.765 C 301.635 275.835 302.952 276.686 303.597 277.318 C 304.241 277.95 304.563 278.847 304.563 280.008 C 304.563 280.834 304.182 281.66 303.422 282.485 C 302.661 283.311 301.739 283.725 300.656 283.725 C 299.778 283.725 298.714 283.441 297.462 282.873 C 296.211 282.305 294.74 281.479 293.049 280.395 C 291.358 279.312 289.506 278.048 287.494 276.602 C 283.753 278.512 279.16 279.467 273.715 279.467 C 269.303 279.467 265.348 278.764 261.851 277.358 C 258.355 275.952 255.42 273.926 253.046 271.279 C 250.672 268.635 248.885 265.494 247.687 261.855 C 246.486 258.216 245.886 254.255 245.886 249.973 C 245.886 245.611 246.512 241.612 247.763 237.975 C 249.015 234.336 250.827 231.239 253.202 228.684 C 255.576 226.13 258.466 224.176 261.87 222.82 C 265.277 221.465 269.148 220.788 273.483 220.788 C 279.366 220.788 284.417 221.982 288.635 224.369 C 292.855 226.757 296.049 230.15 298.215 234.549 C 300.384 238.949 301.468 244.116 301.468 250.049 C 301.468 259.056 299.03 266.191 294.153 271.455 Z M 285.133 265.184 C 286.734 263.352 287.914 261.184 288.675 258.681 C 289.435 256.179 289.816 253.276 289.816 249.973 C 289.816 245.819 289.145 242.219 287.803 239.173 C 286.463 236.128 284.547 233.826 282.056 232.265 C 279.566 230.704 276.709 229.924 273.483 229.924 C 271.186 229.924 269.064 230.356 267.116 231.22 C 265.168 232.085 263.491 233.343 262.083 234.994 C 260.677 236.645 259.568 238.755 258.756 241.321 C 257.943 243.89 257.536 246.774 257.536 249.973 C 257.536 256.501 259.058 261.527 262.102 265.048 C 265.149 268.57 268.994 270.331 273.639 270.331 C 275.547 270.331 277.508 269.931 279.522 269.131 C 278.308 268.229 276.792 267.325 274.972 266.421 C 273.153 265.519 271.908 264.823 271.238 264.332 C 270.566 263.841 270.23 263.145 270.23 262.243 C 270.23 261.469 270.553 260.785 271.199 260.19 C 271.844 259.598 272.554 259.301 273.328 259.301 C 275.675 259.301 279.611 261.262 285.133 265.184 Z M 338.003 273.505 L 338.003 272.151 C 336.738 273.75 335.41 275.092 334.017 276.177 C 332.622 277.261 331.099 278.066 329.447 278.595 C 327.796 279.123 325.912 279.388 323.797 279.388 C 321.243 279.388 318.953 278.859 316.926 277.802 C 314.901 276.743 313.333 275.285 312.223 273.428 C 310.908 271.184 310.25 267.959 310.25 263.752 L 310.25 242.813 C 310.25 240.696 310.728 239.115 311.683 238.071 C 312.638 237.026 313.902 236.503 315.476 236.503 C 317.075 236.503 318.365 237.032 319.346 238.091 C 320.326 239.148 320.816 240.722 320.816 242.813 L 320.816 259.726 C 320.816 262.178 321.022 264.236 321.436 265.9 C 321.849 267.565 322.591 268.868 323.661 269.81 C 324.733 270.752 326.184 271.223 328.015 271.223 C 329.797 271.223 331.474 270.693 333.049 269.635 C 334.623 268.578 335.771 267.197 336.494 265.493 C 337.087 263.996 337.383 260.72 337.383 255.663 L 337.383 242.813 C 337.383 240.722 337.874 239.148 338.855 238.091 C 339.835 237.032 341.111 236.503 342.685 236.503 C 344.259 236.503 345.524 237.026 346.479 238.071 C 347.434 239.115 347.912 240.696 347.912 242.813 L 347.912 273.428 C 347.912 275.44 347.453 276.95 346.536 277.958 C 345.62 278.964 344.44 279.467 342.994 279.467 C 341.55 279.467 340.357 278.944 339.416 277.898 C 338.474 276.853 338.003 275.388 338.003 273.505 Z M 369.003 242.502 L 369.003 273.04 C 369.003 275.156 368.5 276.757 367.494 277.842 C 366.486 278.925 365.208 279.467 363.661 279.467 C 362.113 279.467 360.855 278.912 359.887 277.802 C 358.919 276.692 358.435 275.105 358.435 273.04 L 358.435 242.813 C 358.435 240.722 358.919 239.148 359.887 238.091 C 360.855 237.032 362.113 236.503 363.661 236.503 C 365.208 236.503 366.486 237.032 367.494 238.091 C 368.5 239.148 369.003 240.618 369.003 242.502 Z M 363.777 231.588 C 362.306 231.588 361.049 231.136 360.003 230.232 C 358.957 229.33 358.435 228.053 358.435 226.402 C 358.435 224.905 358.971 223.673 360.043 222.704 C 361.113 221.736 362.357 221.252 363.777 221.252 C 365.145 221.252 366.358 221.691 367.415 222.568 C 368.473 223.446 369.003 224.724 369.003 226.402 C 369.003 228.027 368.487 229.297 367.454 230.212 C 366.422 231.13 365.196 231.588 363.777 231.588 Z M 380.5 237.431 L 381.66 237.431 L 383.974 231.097 C 383.974 229.395 385.247 228.047 385.337 227.078 C 385.428 226.11 384.723 225.278 385.136 224.581 C 385.548 223.859 383.557 223.272 384.333 222.82 C 385.107 222.369 385.971 222.144 386.926 222.144 C 388.268 222.144 389.481 222.647 390.564 223.653 C 391.287 224.323 389.048 225.142 389.24 226.11 C 389.435 227.078 390.354 228.452 390.354 230.232 L 392.229 237.431 L 396.099 237.431 C 397.595 237.431 398.737 237.786 399.524 238.496 C 400.311 239.206 400.705 240.115 400.705 241.225 C 400.705 242.644 400.143 243.638 399.02 244.206 C 397.897 244.774 396.291 245.058 394.202 245.058 L 392.229 245.058 L 392.229 264.488 C 392.229 266.139 392.286 267.409 392.401 268.298 C 392.518 269.189 392.828 269.912 393.33 270.467 C 393.834 271.022 394.653 271.299 395.787 271.299 C 396.408 271.299 397.247 271.19 398.304 270.971 C 399.363 270.752 400.189 270.643 400.781 270.643 C 401.633 270.643 402.401 270.984 403.086 271.667 C 403.769 272.351 404.111 273.195 404.111 274.201 C 404.111 275.905 403.182 277.209 401.325 278.111 C 399.466 279.015 396.794 279.467 393.31 279.467 C 390.007 279.467 387.505 278.912 385.802 277.802 C 384.1 276.692 382.984 275.157 382.456 273.196 C 381.926 271.235 381.66 268.616 381.66 265.34 L 381.66 245.058 L 380.268 245.058 C 378.744 245.058 377.584 244.697 376.785 243.974 C 375.985 243.251 375.585 242.335 375.585 241.225 C 375.585 240.115 376.004 239.206 376.842 238.496 C 377.68 237.786 378.899 237.431 380.5 237.431 Z" style="fill: rgb(254, 254, 254); text-wrap-mode: nowrap;"/></g></g><defs><linearGradient id="gradient_1" gradientUnits="userSpaceOnUse" x1="284.41644" y1="324.91827" x2="320.64008" y2="185.32738" gradientTransform="matrix(2, 0, 0, 2, 0, 0)"><stop offset="0" stop-color="#8B67FF"/><stop offset="1" stop-color="#3FCBFD"/></linearGradient></defs><defs><linearGradient id="gradient_2" gradientUnits="userSpaceOnUse" x1="294.62503" y1="273.99225" x2="304.70715" y2="229.99019" gradientTransform="matrix(2, 0, 0, 2, 0, 0)"><stop offset="0" stop-color="#6788FF"/><stop offset="1" stop-color="#56A7FF"/></linearGradient></defs></svg>